<svg id="visual" viewBox="0 0 1500 350" width="1500" height="350" xmlns="http://www.w3.org/2000/svg" xmlns:xlink="http://www.w3.org/1999/xlink" version="1.1"><rect x="0" y="0" width="1500" height="350" fill="#f2f2f2"></rect><g transform="translate(-12.405139306838237 -30.08274860948802)"><path d="M234 -365.6C309 -315.9 379.7 -260.8 425.2 -186.7C470.8 -112.6 491.2 -19.5 477.2 67.6C463.1 154.7 414.4 235.8 355 311.7C295.6 387.5 225.4 458.1 137.7 496.2C50.1 534.4 -55.1 540 -137.3 500.7C-219.4 461.4 -278.6 377.1 -322.3 296.2C-366 215.4 -394.1 138 -420.6 51.5C-447 -35.1 -471.8 -131 -445.6 -209.8C-419.4 -288.6 -342.2 -350.4 -259.4 -396.6C-176.6 -442.8 -88.3 -473.4 -4.4 -466.5C79.5 -459.7 158.9 -415.3 234 -365.6" fill="#DAD0C1"></path></g></svg>