<svg id="visual" viewBox="0 0 1600 700" width="1600" height="700" xmlns="http://www.w3.org/2000/svg" xmlns:xlink="http://www.w3.org/1999/xlink" version="1.1"><rect x="0" y="0" width="1600" height="700" fill="#f2f2f2"></rect><g transform="translate(1461.8928036266161 226.43633948593146)"><path d="M676.5 -837.5C822.9 -683.4 850.7 -419.1 907.6 -151.8C964.5 115.5 1050.6 385.9 930.6 484.2C810.6 582.5 484.5 508.8 273.5 458.6C62.5 408.5 -33.4 381.8 -196.1 388C-358.7 394.1 -588.1 433.1 -673.6 355C-759.1 276.9 -700.6 81.9 -599.5 -38.7C-498.4 -159.3 -354.6 -205.3 -247.6 -366.4C-140.6 -527.6 -70.3 -803.8 97.4 -919.8C265 -1035.9 530.1 -991.7 676.5 -837.5" fill="#D9D0C1"></path></g></svg>