<svg id="visual" viewBox="0 0 1500 592" width="1500" height="592" xmlns="http://www.w3.org/2000/svg" xmlns:xlink="http://www.w3.org/1999/xlink" version="1.1"><rect x="0" y="0" width="1500" height="592" fill="#f2f2f2"></rect><g transform="translate(-5.980221171021583 -26.712910065640756)"><path d="M309 -483C412.5 -414.3 516.9 -349 560.7 -255.4C604.6 -161.8 587.8 -39.8 571.8 83.3C555.8 206.5 540.5 330.8 480.1 435.4C419.7 540.1 314.1 625.1 194.5 658.4C74.8 691.8 -58.8 673.6 -167.1 619C-275.4 564.4 -358.4 473.4 -426.8 378.6C-495.2 283.8 -549 185.3 -568.5 79C-588 -27.2 -573.3 -141.2 -522.8 -233.4C-472.4 -325.7 -386.2 -396.3 -293.1 -469.8C-200 -543.3 -100 -619.6 1.4 -621.7C102.7 -623.8 205.4 -551.7 309 -483" fill="#DAD0C1"></path></g></svg>