<svg version="1.1" id="Layer_1" xmlns="http://www.w3.org/2000/svg" xmlns:xlink="http://www.w3.org/1999/xlink" x="0px" y="0px"
	 width="100%" viewBox="0 0 1024 1024" enable-background="new 0 0 1024 1024" xml:space="preserve">
<path fill="#000000" opacity="1.000000" stroke="none" 
	d="
M602.000000,516.273804 
	C519.515076,516.278198 437.530121,516.265015 355.545227,516.336060 
	C351.357635,516.339661 348.473114,516.028259 348.728760,510.573120 
	C349.043304,503.862030 348.851074,503.711273 355.768097,503.679474 
	C363.625519,503.643341 363.654877,503.643188 363.600189,495.745331 
	C363.441040,472.760559 363.245667,449.776031 363.087189,426.791260 
	C363.032440,418.849762 363.981140,417.967865 371.947266,417.865936 
	C386.819519,417.675629 385.484955,418.022675 385.358521,431.001221 
	C385.142670,453.161713 385.253357,475.325500 385.267090,497.487885 
	C385.268250,499.379211 384.885712,501.420013 386.337036,503.370239 
	C388.579681,501.722778 387.873138,499.572815 387.876587,497.779266 
	C387.919769,475.283844 387.878326,452.788269 387.865448,430.292725 
	C387.861389,423.213684 388.420776,422.665771 395.561432,422.646637 
	C397.727692,422.640839 399.894073,422.634003 402.060211,422.648926 
	C409.209625,422.698151 410.193207,423.633911 410.185913,430.718872 
	C410.162933,453.047791 410.081421,475.376770 410.098938,497.705627 
	C410.100372,499.540100 409.293488,501.700592 412.052765,503.799194 
	C412.052765,499.356964 411.995422,495.552185 412.067749,491.749878 
	C412.151978,487.320831 412.642761,483.113464 418.906464,483.405304 
	C418.906464,479.231720 418.880463,475.428986 418.915253,471.626801 
	C418.939850,468.938324 419.020264,466.266144 421.499481,464.414185 
	C422.905334,463.363983 422.672546,461.748749 422.624756,460.264099 
	C422.512360,456.770569 422.215302,453.277588 422.242981,449.786377 
	C422.272675,446.037140 424.154633,443.898376 428.116089,443.900391 
	C452.611298,443.912750 477.106476,443.904297 501.601685,443.919464 
	C503.311798,443.920532 504.896454,444.370667 506.126617,445.678680 
	C509.358734,449.115234 508.577637,462.300568 504.660828,464.866608 
	C502.864044,466.043732 503.320160,467.245911 503.319611,468.643890 
	C503.315216,480.077759 503.317078,491.511627 503.317078,503.326538 
	C510.390717,503.326538 516.637268,503.326538 523.170654,503.326538 
	C520.246887,500.842560 516.660034,500.052460 513.426453,498.651154 
	C510.189453,497.248413 509.254639,495.371490 510.432251,491.985718 
	C517.925171,470.442383 525.369019,448.881439 532.689453,427.279022 
	C534.181641,422.875641 536.419250,421.404053 540.898376,423.332428 
	C544.866211,425.040649 549.046021,426.251862 553.110291,427.742340 
	C558.472168,429.708740 559.056641,430.968140 557.168396,436.321503 
	C549.747559,457.360596 542.315491,478.395782 534.899048,499.436432 
	C534.521301,500.508057 534.249573,501.617065 533.667297,503.596619 
	C541.835083,503.596619 549.561707,503.749512 557.277283,503.524597 
	C560.559448,503.428925 559.724060,500.457672 559.728149,498.469177 
	C559.776733,474.974457 559.759521,451.479645 559.752625,427.984833 
	C559.749756,418.311768 560.197937,417.909576 569.903564,417.854980 
	C586.967163,417.759033 585.245300,417.284241 585.203552,433.332703 
	C585.151123,453.495453 585.092896,473.658173 585.039795,493.820923 
	C585.032104,496.734650 585.038696,499.648438 585.707642,502.608978 
	C587.794128,500.447754 587.688232,497.855225 587.594360,495.338348 
	C586.854553,475.520416 587.009155,455.695038 587.048828,435.870911 
	C587.066467,427.086823 587.638916,426.479614 596.402832,426.639008 
	C608.440552,426.857880 610.253662,423.451843 610.095703,440.208557 
	C609.918335,459.036530 610.075500,477.867828 610.138245,496.697510 
	C610.144714,498.633057 609.694580,500.665222 611.161865,503.238098 
	C612.614075,498.593262 612.550354,494.402618 612.562805,490.278656 
	C612.629822,468.116302 612.585510,445.953613 612.621521,423.791138 
	C612.625977,421.045013 611.950623,417.963074 615.419617,416.473145 
	C618.346313,415.216125 627.386719,415.841217 628.986511,417.483276 
	C630.713867,419.256195 630.282776,421.522125 630.283813,423.648407 
	C630.296326,448.143829 630.260620,472.639313 630.307678,497.134644 
	C630.311279,499.003601 629.602234,501.107422 631.437988,502.984467 
	C633.497375,501.228729 632.733521,498.941650 632.736694,496.993591 
	C632.772766,474.831360 632.713623,452.669006 632.698181,430.506683 
	C632.693176,423.301208 633.272705,422.719299 640.267883,422.685150 
	C643.933838,422.667267 647.600342,422.646454 651.265747,422.694580 
	C656.833130,422.767670 658.094299,423.892700 658.151917,429.419495 
	C658.259583,439.749817 658.199768,450.081879 658.209045,460.413239 
	C658.220032,472.577545 658.223267,484.741821 658.243958,496.906128 
	C658.255310,503.611633 658.268372,503.611603 664.712585,503.624969 
	C672.076355,503.640259 674.104370,506.474976 672.204895,513.783936 
	C671.398621,516.886536 668.995422,516.234314 666.983704,516.239868 
	C647.487427,516.293579 627.990906,516.271606 608.494507,516.271362 
	C606.496338,516.271362 604.498169,516.272705 602.000000,516.273804 
M575.726868,477.897522 
	C575.737732,464.924469 575.744202,451.951416 575.763367,438.978363 
	C575.766968,436.515137 575.738586,434.291443 572.229797,434.298370 
	C569.023132,434.304718 568.306641,436.004944 568.318542,438.728241 
	C568.373535,451.368652 568.367432,464.009277 568.396973,476.649841 
	C568.400452,478.152649 568.312439,479.999481 570.116882,480.376282 
	C572.084351,480.787109 574.511292,481.646210 575.726868,477.897522 
M377.826843,448.761353 
	C378.936005,444.572296 374.057373,440.125946 378.478790,435.953705 
	C379.246338,435.229401 378.122070,433.758575 376.846130,433.396515 
	C375.401245,432.986481 373.406769,433.608093 373.683838,434.816193 
	C374.725677,439.359497 371.231903,442.800781 371.256104,447.024902 
	C371.311401,456.671265 371.273315,466.318115 371.262451,475.964783 
	C371.259735,478.375275 371.091248,480.749969 374.692963,480.656586 
	C377.993530,480.570984 377.816895,478.337189 377.819916,476.140320 
	C377.832031,467.325287 377.823914,458.510223 377.826843,448.761353 
M471.431396,496.987183 
	C472.763031,496.981873 474.103760,497.073242 475.424255,496.949280 
	C477.568420,496.747925 480.649658,497.741547 480.683228,494.102325 
	C480.718079,490.316467 477.533325,491.376068 475.464874,491.361542 
	C462.481873,491.270538 449.497803,491.294159 436.514313,491.344604 
	C434.297180,491.353210 431.316864,490.764343 431.501007,494.422455 
	C431.666687,497.714600 434.498688,496.962860 436.496124,496.974396 
	C447.814789,497.039703 459.134064,496.997955 471.431396,496.987183 
M595.311829,477.291626 
	C595.312683,477.790710 595.298401,478.290375 595.317017,478.788818 
	C595.401733,481.063080 594.834839,483.685944 598.534302,483.688843 
	C602.165405,483.691711 601.826172,481.148224 601.831848,478.827698 
	C601.854187,469.677704 601.827576,460.527588 601.850647,451.377594 
	C601.856812,448.928314 601.372131,447.131775 598.288452,447.254730 
	C595.354065,447.371765 595.308655,449.271027 595.311951,451.387054 
	C595.324951,459.705353 595.314331,468.023682 595.311829,477.291626 
M637.864502,440.046356 
	C642.138733,441.851624 646.601624,440.705688 650.978333,440.838928 
	C652.401001,440.882263 653.613892,440.161896 653.494263,438.468536 
	C653.378235,436.825623 652.112915,436.301178 650.702759,436.277039 
	C647.248352,436.217865 643.790527,436.189270 640.337524,436.279297 
	C638.459534,436.328217 637.173279,437.181702 637.864502,440.046356 
M645.497253,487.024811 
	C643.831665,487.038147 642.163025,486.994019 640.501343,487.081451 
	C638.928406,487.164246 637.362549,487.514282 637.477600,489.562531 
	C637.570618,491.218994 638.889587,491.721741 640.310303,491.784119 
	C642.305786,491.871704 644.335083,492.053345 646.298279,491.798157 
	C648.836426,491.468231 653.251709,493.377747 653.294678,489.451508 
	C653.338989,485.389282 648.884216,487.615051 645.497253,487.024811 
M541.750488,447.716797 
	C542.535217,447.990479 543.300842,448.384216 544.108704,448.512512 
	C545.737183,448.771210 547.729309,449.250153 548.310669,447.090881 
	C548.885803,444.954468 546.931824,444.251434 545.411072,443.687866 
	C542.452881,442.591705 539.431396,441.662262 536.417969,440.721832 
	C535.273438,440.364624 534.023560,440.178955 533.452881,441.627869 
	C532.938904,442.932983 533.620544,443.995941 534.699463,444.559357 
	C536.753601,445.632050 538.911743,446.505524 541.750488,447.716797 
M444.772766,451.055756 
	C444.600952,449.417084 444.034760,448.092743 442.058685,448.377594 
	C440.399628,448.616730 440.119324,450.013489 440.073944,451.353790 
	C439.996277,453.648895 439.988434,455.950958 440.075165,458.245392 
	C440.133209,459.780670 440.525482,461.397034 442.434967,461.419891 
	C444.347321,461.442749 444.775940,459.880341 444.818268,458.309631 
	C444.875793,456.176392 444.824463,454.040192 444.772766,451.055756 
M397.718506,436.978851 
	C395.707520,437.276184 392.606445,436.523285 392.712036,439.587769 
	C392.817810,442.658142 395.923126,441.588318 397.907776,441.875183 
	C398.070770,441.898743 398.248749,441.913818 398.404968,441.874298 
	C400.838135,441.259064 405.201050,443.486359 405.172241,439.317383 
	C405.147980,435.815430 400.998901,437.372131 397.718506,436.978851 
M490.407532,458.489105 
	C492.126831,457.569641 492.514343,456.244751 490.240570,456.194397 
	C484.320465,456.063293 478.266541,455.237518 471.709229,457.878937 
	C478.247803,459.740204 484.070038,457.118256 490.407532,458.489105 
M459.189270,463.840179 
	C464.587646,463.840179 469.986023,463.840179 475.384399,463.840179 
	C475.355377,463.166840 475.326324,462.493469 475.297302,461.820129 
	C468.789917,461.264709 462.311615,462.196930 455.467560,462.369324 
	C456.401367,464.220917 457.533264,463.607574 459.189270,463.840179 
z"/>
<path fill="#000000" opacity="1.000000" stroke="none" 
	d="
M438.072235,607.563416 
	C438.597260,604.919739 438.828003,602.569519 439.502869,600.354675 
	C440.696320,596.437744 443.195343,593.874634 447.388611,592.817932 
	C450.904083,591.932007 452.699371,592.966553 453.659546,596.391602 
	C455.658020,603.520142 456.400482,610.772583 456.309875,618.144104 
	C456.282288,620.387329 456.288605,622.635742 459.513092,622.633423 
	C478.152191,622.619934 496.791290,622.626831 516.164795,622.626831 
	C512.371521,613.001526 508.770416,603.963928 505.245117,594.896790 
	C498.969116,578.755066 492.681122,562.617554 486.518402,546.432495 
	C484.085510,540.042969 484.601837,539.088562 490.707977,536.702698 
	C502.340668,532.157471 513.975708,527.618042 525.627991,523.123413 
	C531.204956,520.972290 532.516235,521.492310 534.714233,527.033325 
	C544.046570,550.559204 553.330078,574.104370 562.591614,597.658203 
	C564.794250,603.260071 564.264587,604.520081 558.707642,606.761780 
	C546.078674,611.856201 533.414795,616.864014 519.729858,622.319702 
	C538.364563,622.319702 555.872742,622.319702 573.721985,622.319702 
	C573.721985,616.535889 573.647949,611.086121 573.742798,605.639282 
	C573.837219,600.214966 575.261841,598.717957 580.573242,598.717224 
	C605.234924,598.713684 629.896667,598.810425 654.558350,598.814636 
	C659.096436,598.815430 661.372314,600.794189 661.309692,605.435059 
	C661.235901,610.903992 661.292419,616.374634 661.292419,621.537598 
	C663.256714,622.887756 665.005615,622.697754 666.598999,622.548462 
	C670.849365,622.150269 672.589844,623.637573 672.417053,628.153015 
	C672.158691,634.904663 672.321289,635.064148 665.363953,635.066589 
	C561.882568,635.102173 458.401184,635.103271 354.919952,635.219910 
	C350.478516,635.224915 348.547211,634.036438 348.723602,629.293579 
	C348.877838,625.147461 349.098328,621.802307 354.551910,622.650085 
	C359.876709,623.477783 360.897675,620.790588 360.858978,616.018250 
	C360.669891,592.690735 360.766968,569.360779 360.804382,546.031677 
	C360.815735,538.955566 361.885468,537.938599 368.888031,537.870789 
	C383.233795,537.731873 383.236938,537.731873 383.237030,551.811279 
	C383.237122,573.474060 383.213074,595.136902 383.267273,616.799500 
	C383.271515,618.493469 382.536438,620.457886 384.470032,622.103210 
	C387.214844,619.251404 384.583405,614.766602 387.471863,612.147888 
	C389.304810,612.589172 389.203796,614.186279 389.617859,615.342834 
	C390.834503,618.741394 393.169708,619.914062 396.227203,618.138733 
	C399.766357,616.083801 402.058502,615.896912 402.780090,620.669800 
	C402.856384,621.174194 403.589050,621.579407 404.142517,622.162720 
	C406.462769,620.619141 405.597809,618.424377 405.602295,616.648621 
	C405.661835,593.153015 405.626343,569.657166 405.625610,546.161377 
	C405.625397,538.948120 406.484070,538.084778 413.615204,538.059448 
	C416.447937,538.049377 419.282532,538.024048 422.113190,538.108948 
	C428.654144,538.304993 430.006104,539.710510 430.015930,546.169922 
	C430.050903,569.165039 430.061829,592.160339 430.158051,615.155151 
	C430.166565,617.179016 429.387329,619.477051 431.870850,621.796021 
	C433.791565,616.858704 432.809723,610.849976 438.072235,607.563416 
M535.512085,556.937317 
	C519.449768,552.439697 506.273315,560.199341 503.158051,575.841064 
	C502.632965,578.477722 502.909515,580.415466 505.384888,581.717590 
	C516.946716,587.799255 532.613281,589.012451 541.893372,574.494507 
	C548.160461,564.690308 547.202087,561.528931 535.512085,556.937317 
M368.402557,592.988892 
	C368.459686,594.483276 368.547729,595.977295 368.566742,597.472168 
	C368.595428,599.732422 369.620544,600.736328 371.960815,600.697205 
	C374.415039,600.656189 375.660980,599.747314 375.655487,597.170044 
	C375.629364,584.867188 375.651062,572.564087 375.672516,560.261108 
	C375.677307,557.512512 374.069489,556.969177 371.730560,557.132324 
	C368.367615,557.366760 368.373962,559.773071 368.372955,562.167114 
	C368.368744,572.142578 368.389648,582.118042 368.402557,592.988892 
M414.131226,573.500916 
	C414.150726,579.499146 414.192139,585.497437 414.178955,591.495605 
	C414.173676,593.894958 414.480865,595.808777 417.641449,595.690308 
	C420.535919,595.581787 420.705109,593.735229 420.703217,591.589966 
	C420.693634,580.759766 420.684784,569.929626 420.708221,559.099426 
	C420.713104,556.847900 420.260834,555.149353 417.488464,555.115356 
	C414.731537,555.081543 414.151001,556.744934 414.151367,559.006104 
	C414.152039,563.504700 414.137207,568.003235 414.131226,573.500916 
M643.325623,612.380981 
	C643.332764,613.378113 643.317261,614.376038 643.351807,615.372192 
	C643.415771,617.212341 643.318604,619.452881 645.897583,619.358643 
	C648.205566,619.274292 648.576416,617.226685 648.601562,615.292908 
	C648.638123,612.468079 648.657288,609.642395 648.632996,606.817566 
	C648.617371,605.003479 648.124084,603.357422 645.914795,603.432007 
	C643.720032,603.506042 643.384338,605.229187 643.343750,606.997131 
	C643.309448,608.492188 643.328186,609.988403 643.325623,612.380981 
M590.824585,614.969360 
	C590.854309,612.494141 590.936768,610.018127 590.896057,607.544067 
	C590.867065,605.783508 591.201782,603.484009 588.537598,603.502747 
	C586.304932,603.518433 586.270081,605.536133 586.250671,607.207642 
	C586.218140,610.012634 586.259583,612.818726 586.285522,615.624207 
	C586.299805,617.163940 586.441528,618.873657 588.276733,619.130859 
	C590.724609,619.473999 590.626953,617.438110 590.824585,614.969360 
z"/>
<path fill="#000000" opacity="1.000000" stroke="none" 
	d="
M481.000061,393.655762 
	C537.307800,393.628357 593.115479,393.614532 648.923218,393.553619 
	C654.415344,393.547638 659.906372,393.169830 665.399475,393.113892 
	C672.097839,393.045685 672.304749,393.309052 672.308228,399.626526 
	C672.311829,406.214325 672.311829,406.237488 665.654846,406.236542 
	C589.856323,406.225891 514.057800,406.203400 438.259308,406.193695 
	C410.438751,406.190155 382.618195,406.225861 354.797699,406.194214 
	C352.750977,406.191864 349.964081,406.966644 349.235474,404.188416 
	C348.441223,401.159729 348.179993,397.808838 349.526978,394.884766 
	C350.417786,392.950928 352.801453,393.688446 354.557617,393.685364 
	C377.047241,393.645813 399.536957,393.656036 422.026642,393.655182 
	C441.517792,393.654449 461.008911,393.655731 481.000061,393.655762 
z"/>
<path fill="#000000" opacity="1.000000" stroke="none" 
	d="
M481.420898,539.735718 
	C489.361389,562.889771 497.074585,585.706604 505.056763,608.429016 
	C506.688324,613.073425 505.277466,615.213318 500.949036,616.559326 
	C496.669983,617.889954 492.445068,619.428345 488.283234,621.092834 
	C484.260498,622.701599 481.915558,621.289429 480.644592,617.423340 
	C478.880066,612.055969 477.186188,606.664490 475.355164,601.320068 
	C468.892609,582.457214 462.378143,563.612244 455.896576,544.755920 
	C453.148041,536.759705 453.626068,535.802490 461.475464,533.189514 
	C464.786804,532.087219 468.132385,531.070740 471.386993,529.819214 
	C475.535950,528.223755 478.106537,529.454163 479.351532,533.707520 
	C479.910919,535.618652 480.637787,537.480713 481.420898,539.735718 
M475.360107,547.139343 
	C476.815491,546.380554 478.738495,545.808533 477.801544,543.573914 
	C477.075989,541.843384 475.335022,541.899536 473.901459,542.330505 
	C470.566345,543.333374 467.274475,544.496399 464.015381,545.727722 
	C462.623230,546.253662 461.949738,547.462158 462.452698,548.963806 
	C462.980804,550.540527 464.281403,550.812134 465.698181,550.374573 
	C468.714752,549.443054 471.704041,548.423218 475.360107,547.139343 
M487.174530,602.746338 
	C486.242615,603.081665 485.285675,603.361206 484.384430,603.764954 
	C482.899963,604.429993 481.787109,605.423218 482.568115,607.223877 
	C483.228516,608.746460 484.599274,608.791626 485.949615,608.356873 
	C489.093353,607.344543 492.225830,606.292969 495.334930,605.179199 
	C496.801727,604.653687 498.185394,603.795593 497.651154,601.936707 
	C496.998657,599.666626 495.128326,600.190186 493.551392,600.605652 
	C491.638672,601.109497 489.784454,601.835449 487.174530,602.746338 
z"/>
<path fill="#000000" opacity="1.000000" stroke="none" 
	d="
M576.762024,596.669312 
	C573.686157,595.054688 573.653625,592.546265 573.662781,589.995483 
	C573.720886,573.775330 571.863586,574.694885 588.461365,574.718567 
	C607.589111,574.745789 626.716858,574.711853 645.844604,574.738953 
	C652.633240,574.748596 654.048035,576.185913 654.123596,582.869507 
	C654.284302,597.088501 654.284363,597.106201 640.000366,597.139404 
	C620.540222,597.184631 601.080017,597.207642 581.619873,597.211365 
	C580.134705,597.211609 578.649536,596.983093 576.762024,596.669312 
M601.663330,582.951660 
	C600.664429,582.952087 599.654114,582.856506 598.669067,582.973511 
	C596.748413,583.201599 593.928894,581.994507 593.971497,585.650879 
	C594.007996,588.780945 596.236572,588.848633 598.516052,588.848633 
	C608.504883,588.848511 618.493713,588.857788 628.482544,588.868713 
	C630.794434,588.871216 632.923706,588.709290 632.848145,585.534302 
	C632.774292,582.429321 630.606812,582.842957 628.590393,582.853943 
	C619.933716,582.901367 611.276917,582.920166 601.663330,582.951660 
z"/>
<path fill="#000000" opacity="1.000000" stroke="none" 
	d="
M394.847229,534.229126 
	C391.577911,533.975952 389.785736,536.430359 387.335297,537.237854 
	C384.796112,533.060303 385.726898,530.581726 390.136719,530.046814 
	C392.417175,529.770142 394.758575,529.815125 397.060944,529.935242 
	C402.911652,530.240540 404.670288,534.125122 401.308228,539.425049 
	C398.649811,538.443298 398.649078,534.260315 394.847229,534.229126 
z"/>
<path fill="#000000" opacity="1.000000" stroke="none" 
	d="
M450.032562,585.441162 
	C448.118042,578.755615 451.754242,573.232910 451.961304,567.182129 
	C454.585449,570.198792 454.689026,583.454590 452.760040,586.199036 
	C451.638062,587.795349 450.882843,586.841553 450.032562,585.441162 
z"/>
<path fill="#000000" opacity="1.000000" stroke="none" 
	d="
M523.201599,582.246216 
	C517.264099,581.216675 513.782532,577.969421 512.809143,572.471252 
	C511.991028,567.850708 513.467834,563.886780 517.493408,561.181763 
	C521.747559,558.323059 526.387512,558.503601 530.482056,561.557800 
	C534.599854,564.629333 536.362915,569.576233 535.051147,574.377563 
	C533.783386,579.017700 529.698547,581.838928 523.201599,582.246216 
M527.787292,568.121582 
	C529.429382,567.102173 530.136108,565.738037 529.042847,563.960266 
	C528.289124,562.734680 527.110718,562.101990 525.646301,562.665222 
	C524.494751,563.108093 523.577759,564.035400 523.606873,565.252563 
	C523.658997,567.431213 524.974548,568.492126 527.787292,568.121582 
z"/>
</svg>